<?xml version="1.0" encoding="UTF-8"?>
<svg id="Layer_2" data-name="Layer 2" xmlns="http://www.w3.org/2000/svg" viewBox="0 0 130.48 70.39">
  <defs>
    <style>
      .cls-1 {
        fill: #6f4f38;
      }
    </style>
  </defs>
  <g id="Layer_2-2" data-name="Layer 2">
    <g>
      <path class="cls-1" d="M0,69.21c1.99-.1,3.59-.38,4.8-.83,1.2-.45,2.29-1.17,3.25-2.17,1.07-1.1,1.8-2.5,2.19-4.2.39-1.7.59-4.31.59-7.81V16.19c0-3.78-.23-6.55-.7-8.3s-1.37-3.2-2.71-4.33C5.74,2.15,3.27,1.36,0,1.19V0h28.36c6.29,0,10.3.07,12.02.21,7.25.55,13.41,2.61,18.46,6.19,4.81,3.4,8.56,7.86,11.24,13.38s4.02,11.53,4.02,18.02c0,4.74-.77,9.22-2.29,13.43-1.53,4.21-3.65,7.71-6.37,10.49-3.82,3.92-8.58,6.41-14.29,7.48-4.26.79-8.61,1.19-13.05,1.19H0v-1.19ZM22.12,1.6v51.26c0,3.37.19,5.93.57,7.68.38,1.75,1.08,3.25,2.11,4.49,2.2,2.68,5.78,4.02,10.73,4.02,4.23,0,7.85-.7,10.86-2.09,3.01-1.39,5.7-3.65,8.07-6.78,2.34-3.02,4.12-6.49,5.34-10.39,1.22-3.9,1.83-8.05,1.83-12.45,0-4.88-.74-9.52-2.22-13.92-1.48-4.4-3.59-8.25-6.34-11.55-3.82-4.57-8.37-7.6-13.67-9.08-2.89-.79-6.57-1.19-11.04-1.19h-6.24Z"/>
      <path class="cls-1" d="M71.11,11.76s0,0,.01.01l46.64,58.62h2.25V17.9c0-3.36.19-5.86.57-7.51.38-1.65,1.09-3,2.12-4.07,1.86-1.93,4.46-2.89,7.78-2.89v-1.15h-23.01v1.15c1.9.1,3.44.37,4.62.8,1.18.43,2.24,1.13,3.17,2.1,1.03,1.06,1.74,2.41,2.12,4.04.38,1.63.57,4.16.57,7.59v36.03L77.44,2.28h-19.21v1.15c1.93.1,3.48.37,4.67.8,1.18.43,2.22,1.13,3.12,2.1"/>
      <path class="cls-1" d="M63.51,67.07c-1.01.8-3.41,1.8-5.28,1.92v1.41h22.8v-1.41c-1.88-.12-4.22-1.1-5.2-1.92"/>
    </g>
  </g>
</svg>